Coordinates
version=1
nRows=12
nColumns=24
inDegrees=yes

Units are S.I. units (second, meters, Newtons, ...)
Angles are in degrees.

endheader
time	pelvis_tilt	pelvis_list	pelvis_rotation	pelvis_tx	pelvis_ty	pelvis_tz	hip_flexion_r	hip_adduction_r	hip_rotation_r	knee_angle_r	ankle_angle_r	subtalar_angle_r	mtp_angle_r	hip_flexion_l	hip_adduction_l	hip_rotation_l	knee_angle_l	ankle_angle_l	subtalar_angle_l	mtp_angle_l	lumbar_extension	lumbar_bending	lumbar_rotation
      5.09000000	    -10.09273806	     -0.81450362	      6.39271920	     -1.34439836	     -0.03219073	      2.00327470	     34.23041354	     -1.18536806	    -18.47481969	     -8.29261362	     -0.76520353	      6.48670765	     19.36542259	     -4.11957540	      0.99504341	     -2.90148940	    -14.00493366	     21.80099322	     10.62192338	    -40.97882220	      3.82321785	     -0.14972313	     -7.40856551
      5.10000000	    -10.13437202	     -1.03302584	      6.61091531	     -1.33022421	     -0.03359258	      2.00409548	     34.47202852	     -1.16060180	    -18.72439102	     -9.85658381	     -1.27152167	      4.98883058	     18.92998422	     -4.22197484	      0.43708305	     -2.73037996	    -15.35333699	     21.07111178	     11.36582405	    -37.80803603	      4.09813798	      0.07614101	     -7.74386711
      5.11000000	    -10.14485683	     -1.39518180	      6.69427862	     -1.31583165	     -0.03482739	      2.00521177	     34.62417947	     -0.87961960	    -18.65792640	    -11.46222134	     -1.99857614	      3.22879755	     15.78383352	     -4.25124630	     -0.31972629	     -2.88026107	    -16.88912520	     20.38348157	     12.34186719	    -35.13195746	      4.37746092	      0.46253877	     -7.96827820
      5.12000000	    -10.19003055	     -1.93061591	      6.65689204	     -1.30132503	     -0.03583694	      2.00655543	     34.75052194	     -0.33055183	    -18.37535595	    -12.96307425	     -2.93710491	      1.39574992	     10.54134563	     -4.10574586	     -1.28106939	     -3.24676855	    -18.63187276	     19.50798923	     13.35800731	    -32.19732871	      4.72253453	      1.03930383	     -8.09995979
      5.13000000	    -10.27353125	     -2.60729051	      6.49344817	     -1.28682323	     -0.03654974	      2.00805939	     34.89264971	      0.42714863	    -18.03357276	    -14.34033834	     -4.01472070	     -0.25735248	      5.11146720	     -3.76218633	     -2.40367587	     -3.82193791	    -20.59915468	     18.29574062	     14.32494416	    -28.78806089	      5.11348538	      1.78080010	     -8.14914179
      5.14000000	    -10.41572170	     -3.41163933	      6.22320162	     -1.27226193	     -0.03699576	      2.00964418	     35.09235116	      1.34345917	    -17.75624942	    -15.62678428	     -5.20986179	     -1.62293291	      1.52680940	     -3.18691185	     -3.68754277	     -4.63997779	    -22.81152759	     16.67047622	     15.26429038	    -24.72788086	      5.58024899	      2.67752699	     -8.12292040
      5.15000000	    -10.55889396	     -4.21790267	      5.87371644	     -1.25767525	     -0.03718974	      2.01128928	     35.30037881	      2.29248263	    -17.52789102	    -16.90517578	     -6.42539980	     -2.77235466	      0.52098835	     -2.45767391	     -5.00155033	     -5.60101395	    -25.22433014	     14.44311068	     16.00742418	    -19.76629407	      6.03846615	      3.60141900	     -8.03787444
      5.16000000	    -10.65685651	     -4.98920381	      5.59010918	     -1.24309010	     -0.03711662	      2.01289517	     35.40358151	      3.18987147	    -17.44347902	    -18.10810952	     -7.61385676	     -3.88748261	      1.96530522	     -1.59239641	     -6.30234772	     -6.45776812	    -27.78233766	     11.30263037	     16.30265877	    -12.92003626	      6.43622624	      4.47736969	     -8.07453401
      5.17000000	    -10.72614067	     -5.69310214	      5.28507254	     -1.22845319	     -0.03695898	      2.01462639	     35.38603701	      4.06511515	    -17.43929175	    -19.22041262	     -8.50289528	     -4.88762706	      5.10584512	     -0.60611618	     -7.57450389	     -7.32162192	    -30.43609071	      7.38326471	     16.19029697	     -4.91550947	      6.79013125	      5.27515415	     -8.08718581
      5.18000000	    -10.83705786	     -6.36068352	      4.91039485	     -1.21382362	     -0.03688611	      2.01653705	     35.30066008	      4.99548085	    -17.34887715	    -20.21347776	     -8.86879430	     -5.79846747	      8.13490471	      0.56650790	     -8.82707705	     -8.11444502	    -33.16965027	      2.93578870	     15.56393667	      3.10420880	      7.17737983	      6.03385146	     -8.02264140
      5.19000000	    -10.88970890	     -7.03509121	      4.60461940	     -1.19947634	     -0.03668336	      2.01856183	     34.99537053	      5.98944552	    -17.20939276	    -20.96050284	     -8.76550672	     -6.69422301	     10.02325385	      1.87271085	    -10.06789788	     -8.52845073	    -35.97221571	     -1.85729138	     14.29216701	      9.85470155	      7.45565048	      6.75809766	     -8.00645849
      5.20000000	    -10.86466063	     -7.85370411	      4.26882622	     -1.18533112	     -0.03649186	      2.02061111	     34.47427288	      7.19817944	    -17.05319117	    -21.49090781	     -8.21045088	     -7.35081527	     10.62089827	      3.24409405	    -11.43628758	     -8.68346784	    -38.88010669	     -6.42355557	     12.64748124	     14.30549988	      7.63084669	      7.64936667	     -7.93958149
